<svg viewBox="0 0 24 24" xmlns="http://www.w3.org/2000/svg">
  <path d="M3.21986 12.5306L9.96986 19.2806C10.1106 19.4214 10.3015 19.5004 10.5005 19.5004C10.6995 19.5004 10.8904 19.4214 11.0311 19.2806C11.1718 19.1399 11.2509 18.949 11.2509 18.75C11.2509 18.551 11.1718 18.3601 11.0311 18.2194L5.5608 12.75H20.2505C20.4494 12.75 20.6402 12.671 20.7808 12.5303C20.9215 12.3897 21.0005 12.1989 21.0005 12C21.0005 11.8011 20.9215 11.6103 20.7808 11.4697C20.6402 11.329 20.4494 11.25 20.2505 11.25H5.5608L11.0311 5.78062C11.1718 5.63989 11.2509 5.44902 11.2509 5.25C11.2509 5.05097 11.1718 4.8601 11.0311 4.71937C10.8904 4.57864 10.6995 4.49958 10.5005 4.49958C10.3015 4.49958 10.1106 4.57864 9.96986 4.71937L3.21986 11.4694C3.15013 11.539 3.09481 11.6217 3.05707 11.7128C3.01933 11.8038 2.9999 11.9014 2.9999 12C2.9999 12.0986 3.01933 12.1962 3.05707 12.2872C3.09481 12.3783 3.15013 12.461 3.21986 12.5306Z" />
</svg>
