<svg viewBox="0 0 24 24" xmlns="http://www.w3.org/2000/svg">
  <path d="M22 12.0366C22 6.51378 17.5228 2.03662 12 2.03662C6.47716 2.03662 2 6.51378 2 12.0366C2 16.7264 5.2286 20.6615 9.58424 21.7421V15.0925H7.52216V12.0366H9.58424V10.7199C9.58424 7.31618 11.1246 5.73858 14.4662 5.73858C15.0997 5.73858 16.1928 5.86278 16.64 5.98702V8.75718C16.404 8.73234 15.9941 8.7199 15.4848 8.7199C13.845 8.7199 13.2115 9.34102 13.2115 10.9559V12.0366H16.4778L15.9167 15.0925H13.2115V21.9634C18.1629 21.3653 22 17.1493 22 12.0366Z" />
</svg>
