<svg width="200" height="200" viewBox="0 0 200 200" fill="none" xmlns="http://www.w3.org/2000/svg">
<path d="M100 65.8223C77.631 65.8223 59.4939 83.9593 59.4939 106.328C59.4939 128.697 77.631 146.834 100 146.834C122.369 146.834 140.506 128.697 140.506 106.328C140.506 83.9593 122.369 65.8223 100 65.8223ZM100 135.695C83.8071 135.695 70.633 122.52 70.633 106.328C70.633 90.1362 83.8071 76.9613 100 76.9613C116.193 76.9613 129.367 90.1362 129.367 106.328C129.367 122.52 116.193 135.695 100 135.695Z" fill="url(#paint0_linear_687_25896)"/>
<path d="M125.316 106.328C125.316 120.293 113.964 131.644 100 131.644C86.0359 131.644 74.6838 120.292 74.6838 106.328C74.6838 92.3637 86.0359 81.0117 100 81.0117C113.964 81.0117 125.316 92.3637 125.316 106.328Z" fill="url(#paint1_radial_687_25896)"/>
<path d="M130.34 151.89L145.563 136.667C146.5 135.73 146.5 134.21 145.563 133.273L142.512 130.222C141.575 129.285 140.056 129.285 139.118 130.222L123.895 145.445C122.958 146.383 122.958 147.902 123.895 148.84L126.945 151.89C127.883 152.827 129.402 152.827 130.34 151.89Z" fill="url(#paint2_linear_687_25896)"/>
<path d="M153.672 117.093V95.5641C153.672 94.2386 152.597 93.1641 151.272 93.1641H146.958C145.632 93.1641 144.558 94.2386 144.558 95.5641V117.093C144.558 118.419 145.632 119.493 146.958 119.493H151.272C152.597 119.493 153.672 118.419 153.672 117.093Z" fill="url(#paint3_linear_687_25896)"/>
<path d="M166.835 117.093V95.5641C166.835 94.2386 165.761 93.1641 164.435 93.1641H160.121C158.796 93.1641 157.721 94.2386 157.721 95.5641V117.093C157.721 118.419 158.796 119.493 160.121 119.493H164.435C165.761 119.493 166.835 118.419 166.835 117.093Z" fill="url(#paint4_linear_687_25896)"/>
<path d="M180.001 117.093V95.5641C180.001 94.2386 178.926 93.1641 177.601 93.1641H173.287C171.961 93.1641 170.887 94.2386 170.887 95.5641V117.093C170.887 118.419 171.961 119.493 173.287 119.493H177.601C178.926 119.493 180.001 118.419 180.001 117.093Z" fill="url(#paint5_linear_687_25896)"/>
<path d="M110.764 52.6572H89.2347C87.9092 52.6572 86.8347 53.7317 86.8347 55.0572V59.3712C86.8347 60.6967 87.9092 61.7712 89.2347 61.7712H110.764C112.089 61.7712 113.164 60.6967 113.164 59.3712V55.0572C113.164 53.7317 112.089 52.6572 110.764 52.6572Z" fill="url(#paint6_linear_687_25896)"/>
<path d="M110.764 39.4922H89.2347C87.9092 39.4922 86.8347 40.5667 86.8347 41.8922V46.2062C86.8347 47.5317 87.9092 48.6062 89.2347 48.6062H110.764C112.089 48.6062 113.164 47.5317 113.164 46.2062V41.8922C113.164 40.5667 112.089 39.4922 110.764 39.4922Z" fill="url(#paint7_linear_687_25896)"/>
<path d="M110.764 26.3271H89.2347C87.9092 26.3271 86.8347 27.4017 86.8347 28.7271V33.0411C86.8347 34.3666 87.9092 35.4411 89.2347 35.4411H110.764C112.089 35.4411 113.164 34.3666 113.164 33.0411V28.7271C113.164 27.4017 112.089 26.3271 110.764 26.3271Z" fill="url(#paint8_linear_687_25896)"/>
<path d="M110.764 13.165H89.2347C87.9092 13.165 86.8347 14.2396 86.8347 15.565V19.879C86.8347 21.2045 87.9092 22.279 89.2347 22.279H110.764C112.089 22.279 113.164 21.2045 113.164 19.879V15.565C113.164 14.2396 112.089 13.165 110.764 13.165Z" fill="url(#paint9_linear_687_25896)"/>
<path d="M110.764 0H89.2347C87.9092 0 86.8347 1.07452 86.8347 2.4V6.71399C86.8347 8.03947 87.9092 9.11399 89.2347 9.11399H110.764C112.089 9.11399 113.164 8.03947 113.164 6.71399V2.4C113.164 1.07452 112.089 0 110.764 0Z" fill="url(#paint10_linear_687_25896)"/>
<path d="M69.6597 60.7643L54.4363 75.9875C53.4991 76.9248 53.4991 78.4444 54.4363 79.3816L57.4868 82.4321C58.4241 83.3693 59.9437 83.3693 60.8809 82.4321L76.1044 67.2089C77.0416 66.2716 77.0416 64.752 76.1044 63.8148L73.0539 60.7643C72.1166 59.8271 70.597 59.8271 69.6597 60.7643Z" fill="url(#paint11_linear_687_25896)"/>
<path d="M60.3513 51.4576L45.128 66.6809C44.1907 67.6181 44.1907 69.1377 45.128 70.075L48.1784 73.1254C49.1157 74.0627 50.6353 74.0627 51.5726 73.1254L66.7959 57.9022C67.7332 56.9649 67.7332 55.4453 66.7959 54.5081L63.7455 51.4576C62.8082 50.5204 61.2886 50.5204 60.3513 51.4576Z" fill="url(#paint12_linear_687_25896)"/>
<path d="M51.0423 42.15L35.8189 57.3733C34.8816 58.3105 34.8816 59.8301 35.8189 60.7674L38.8694 63.8178C39.8066 64.7551 41.3262 64.7551 42.2635 63.8178L57.4869 48.5946C58.4241 47.6573 58.4241 46.1377 57.4869 45.2005L54.4364 42.15C53.4991 41.2128 51.9795 41.2128 51.0423 42.15Z" fill="url(#paint13_linear_687_25896)"/>
<path d="M41.7332 32.8414L26.5098 48.0647C25.5725 49.0019 25.5725 50.5215 26.5098 51.4588L29.5603 54.5092C30.4975 55.4465 32.0171 55.4465 32.9544 54.5092L48.1778 39.286C49.115 38.3487 49.115 36.8291 48.1778 35.8919L45.1273 32.8414C44.19 31.9042 42.6704 31.9042 41.7332 32.8414Z" fill="url(#paint14_linear_687_25896)"/>
<path d="M46.3289 95.5652V117.094C46.3289 118.42 47.4034 119.494 48.7289 119.494H53.0429C54.3684 119.494 55.4429 118.42 55.4429 117.094V95.5652C55.4429 94.2397 54.3684 93.1652 53.0429 93.1652H48.7289C47.4034 93.1652 46.3289 94.2397 46.3289 95.5652Z" fill="url(#paint15_linear_687_25896)"/>
<path d="M33.1633 95.5652V117.094C33.1633 118.42 34.2378 119.494 35.5633 119.494H39.8773C41.2028 119.494 42.2774 118.42 42.2774 117.094V95.5652C42.2774 94.2397 41.2028 93.1652 39.8773 93.1652H35.5633C34.2378 93.1652 33.1633 94.2397 33.1633 95.5652Z" fill="url(#paint16_linear_687_25896)"/>
<path d="M19.9983 95.5652V117.094C19.9983 118.42 21.0728 119.494 22.3983 119.494H26.7123C28.0378 119.494 29.1123 118.42 29.1123 117.094V95.5652C29.1123 94.2397 28.0378 93.1652 26.7123 93.1652H22.3983C21.0728 93.1652 19.9983 94.2397 19.9983 95.5652Z" fill="url(#paint17_linear_687_25896)"/>
<path d="M54.4353 136.669L69.6586 151.892C70.5959 152.829 72.1155 152.829 73.0528 151.892L76.1033 148.841C77.0405 147.904 77.0405 146.385 76.1033 145.447L60.8799 130.224C59.9426 129.287 58.423 129.287 57.4858 130.224L54.4353 133.274C53.498 134.212 53.498 135.731 54.4353 136.669Z" fill="url(#paint18_linear_687_25896)"/>
<path d="M45.1286 145.975L60.352 161.198C61.2893 162.136 62.8089 162.136 63.7461 161.198L66.7966 158.148C67.7339 157.211 67.7339 155.691 66.7966 154.754L51.5732 139.531C50.6359 138.593 49.1163 138.593 48.1791 139.531L45.1286 142.581C44.1913 143.518 44.1913 145.038 45.1286 145.975Z" fill="url(#paint19_linear_687_25896)"/>
<path d="M145.563 75.9906L130.34 60.7674C129.402 59.8301 127.883 59.8301 126.946 60.7674L123.895 63.8178C122.958 64.7551 122.958 66.2747 123.895 67.2119L139.118 82.4352C140.056 83.3724 141.575 83.3724 142.513 82.4352L145.563 79.3847C146.5 78.4475 146.5 76.9279 145.563 75.9906Z" fill="url(#paint20_linear_687_25896)"/>
<path d="M154.871 66.682L139.648 51.4588C138.711 50.5215 137.191 50.5215 136.254 51.4588L133.203 54.5092C132.266 55.4465 132.266 56.9661 133.203 57.9033L148.427 73.1266C149.364 74.0638 150.884 74.0638 151.821 73.1266L154.871 70.0761C155.809 69.1389 155.809 67.6193 154.871 66.682Z" fill="url(#paint21_linear_687_25896)"/>
<path d="M164.18 57.3714L148.957 42.1482C148.02 41.211 146.5 41.211 145.563 42.1482L142.512 45.1987C141.575 46.1359 141.575 47.6555 142.512 48.5928L157.736 63.816C158.673 64.7532 160.193 64.7532 161.13 63.816L164.18 60.7655C165.118 59.8283 165.118 58.3087 164.18 57.3714Z" fill="url(#paint22_linear_687_25896)"/>
<path d="M21.9662 174.64H21.9242C21.1182 174.64 20.4371 174.961 19.8811 175.599L11.9151 185.193L11.9011 185.207L11.8871 185.193L3.92103 175.599C3.36402 174.961 2.68402 174.64 1.87701 174.64H1.83501C0.611004 174.64 0 175.252 0 176.475V194.66C0 195.912 0.626004 196.537 1.87701 196.537C3.21202 196.537 3.87903 195.911 3.87903 194.66V180.938L9.46807 187.654C10.2461 188.599 11.0531 189.072 11.8871 189.072C11.8921 189.072 11.8961 189.072 11.9011 189.072C11.9061 189.072 11.9101 189.072 11.9151 189.072C12.7491 189.072 13.5561 188.6 14.3341 187.654L19.9231 180.938V194.66C19.9231 195.912 20.5901 196.537 21.9252 196.537C23.1772 196.537 23.8022 195.911 23.8022 194.66V176.475C23.8022 175.252 23.1912 174.64 21.9672 174.64H21.9662Z" fill="#F9F4F1"/>
<path d="M32.2395 192.45V176.434C32.2395 175.183 32.9065 174.557 34.2415 174.557C35.4935 174.557 36.1185 175.183 36.1185 176.434V192.826H49.1316V176.434C49.1316 175.183 49.7996 174.557 51.1336 174.557C52.3856 174.557 53.0106 175.183 53.0106 176.434V192.45C53.0106 193.702 52.6766 194.661 52.0096 195.328C51.3426 195.996 50.3836 196.33 49.1316 196.33H36.1185C34.8675 196.33 33.9075 195.996 33.2405 195.328C32.5735 194.661 32.2395 193.702 32.2395 192.45Z" fill="#F9F4F1"/>
<path d="M65.6558 174.765H75.9158C77.0838 174.765 77.6678 175.348 77.6678 176.517C77.6678 177.686 77.0838 178.268 75.9158 178.268H65.9058C65.0718 178.268 64.4247 178.492 63.9667 178.935C63.5077 179.381 63.2777 180.034 63.2777 180.895C63.2777 181.702 63.4927 182.335 63.9247 182.793C64.3557 183.252 65.0158 183.481 65.9058 183.481H72.9958C74.9148 183.481 76.4718 184.051 77.6668 185.191C78.8619 186.331 79.4609 187.86 79.4609 189.778C79.4609 190.724 79.3009 191.6 78.9809 192.406C78.6609 193.213 78.2158 193.908 77.6458 194.491C77.0758 195.076 76.3948 195.528 75.6018 195.847C74.8098 196.166 73.9398 196.327 72.9948 196.327H61.8587C60.7177 196.327 60.1487 195.743 60.1487 194.575C60.1487 193.407 60.7187 192.823 61.8587 192.823H72.8278C73.7178 192.823 74.4128 192.545 74.9128 191.988C75.4138 191.433 75.6638 190.695 75.6638 189.777C75.6638 187.915 74.7178 186.983 72.8278 186.983H65.6538C64.7357 186.983 63.9017 186.837 63.1517 186.545C62.4007 186.252 61.7547 185.836 61.2117 185.293C60.6697 184.751 60.2457 184.105 59.9397 183.353C59.6337 182.603 59.4807 181.783 59.4807 180.892C59.4807 180.001 59.6337 179.183 59.9397 178.431C60.2457 177.681 60.6697 177.034 61.2117 176.492C61.7537 175.949 62.4007 175.526 63.1517 175.22C63.9027 174.914 64.7367 174.761 65.6538 174.761L65.6558 174.765Z" fill="#F9F4F1"/>
<path d="M87.155 194.661V176.476C87.155 175.226 87.822 174.6 89.157 174.6C90.408 174.6 91.034 175.226 91.034 176.476V194.661C91.034 195.913 90.408 196.538 89.157 196.538H89.032C87.781 196.538 87.155 195.912 87.155 194.661Z" fill="#F9F4F1"/>
<path d="M100.853 170.807H103.021C103.772 170.807 104.106 171.183 104.022 171.933L103.229 177.939C103.173 178.413 102.909 178.649 102.436 178.649H101.435C100.962 178.649 100.684 178.413 100.6 177.939L99.8499 171.933C99.7389 171.183 100.072 170.807 100.851 170.807H100.853Z" fill="#F9F4F1"/>
<path d="M114.8 174.767H128.814C130.065 174.767 131.024 175.1 131.692 175.767C132.359 176.435 132.693 177.394 132.693 178.645V189.99C132.693 191.242 132.067 191.867 130.816 191.867H130.691C129.44 191.867 128.814 191.241 128.814 189.99V178.269H114.8V192.826H122.307L119.888 190.448C119.026 189.642 119.04 188.808 119.929 187.946C120.374 187.557 120.791 187.362 121.181 187.362C121.625 187.362 122.057 187.57 122.474 187.988L131.525 196.913C131.914 197.303 132.115 197.72 132.13 198.165C132.144 198.61 131.928 199.027 131.483 199.417C131.038 199.805 130.621 200 130.232 200C129.787 200 129.356 199.791 128.938 199.374L125.852 196.33H114.8C113.548 196.33 112.589 195.996 111.922 195.328C111.255 194.661 110.921 193.702 110.921 192.45V178.645C110.921 177.394 111.255 176.434 111.922 175.767C112.589 175.1 113.548 174.767 114.8 174.767Z" fill="#F9F4F1"/>
<path d="M139.347 192.45V176.434C139.347 175.183 140.014 174.557 141.349 174.557C142.6 174.557 143.226 175.183 143.226 176.434V192.826H156.239V176.434C156.239 175.183 156.906 174.557 158.241 174.557C159.492 174.557 160.118 175.183 160.118 176.434V192.45C160.118 193.702 159.784 194.661 159.117 195.328C158.449 195.996 157.49 196.33 156.239 196.33H143.226C141.975 196.33 141.016 195.996 140.348 195.328C139.681 194.661 139.347 193.702 139.347 192.45Z" fill="#F9F4F1"/>
<path d="M168.431 194.661V176.476C168.431 175.226 169.098 174.6 170.433 174.6C171.684 174.6 172.31 175.226 172.31 176.476V194.661C172.31 195.913 171.684 196.538 170.433 196.538H170.308C169.057 196.538 168.431 195.912 168.431 194.661Z" fill="#F9F4F1"/>
<path d="M180.272 195.119C180.272 194.675 180.424 194.272 180.731 193.91L195.474 176.789C195.808 176.399 196.238 176.205 196.767 176.205H198.977C200.006 176.205 200.187 176.608 199.519 177.414L186.278 192.826H198.29C199.43 192.826 200 193.411 200 194.578C200 195.745 199.43 196.33 198.29 196.33H181.439C180.661 196.33 180.272 195.926 180.272 195.12V195.119ZM183.233 174.766H198.874C199.625 174.766 200 175.169 200 175.975C200 176.642 199.721 177.192 199.166 177.623C198.609 178.054 198.012 178.268 197.372 178.268H183.233C182.066 178.268 181.481 177.685 181.481 176.517C181.481 175.349 182.066 174.765 183.233 174.765V174.766Z" fill="#F9F4F1"/>
<defs>
<linearGradient id="paint0_linear_687_25896" x1="71.358" y1="77.6863" x2="128.642" y2="134.971" gradientUnits="userSpaceOnUse">
<stop stop-color="#2E3191"/>
<stop offset="0.06" stop-color="#3448A2"/>
<stop offset="0.21" stop-color="#447EC9"/>
<stop offset="0.34" stop-color="#4FA6E6"/>
<stop offset="0.44" stop-color="#56BFF8"/>
<stop offset="0.5" stop-color="#59C8FF"/>
<stop offset="0.56" stop-color="#56BFF8"/>
<stop offset="0.66" stop-color="#4FA6E6"/>
<stop offset="0.79" stop-color="#447EC9"/>
<stop offset="0.94" stop-color="#3448A2"/>
<stop offset="1" stop-color="#2E3191"/>
</linearGradient>
<radialGradient id="paint1_radial_687_25896" cx="0" cy="0" r="1" gradientUnits="userSpaceOnUse" gradientTransform="translate(100 106.328) scale(25.3162 25.316)">
<stop stop-color="#4D4645"/>
<stop offset="1" stop-color="#0D0D1A"/>
</radialGradient>
<linearGradient id="paint2_linear_687_25896" x1="144.038" y1="131.748" x2="125.42" y2="150.366" gradientUnits="userSpaceOnUse">
<stop stop-color="#A1E513"/>
<stop offset="1" stop-color="#12C54B"/>
</linearGradient>
<linearGradient id="paint3_linear_687_25896" x1="149.115" y1="93.1649" x2="149.115" y2="119.494" gradientUnits="userSpaceOnUse">
<stop stop-color="#FFAA00"/>
<stop offset="1" stop-color="#A1E513"/>
</linearGradient>
<linearGradient id="paint4_linear_687_25896" x1="162.278" y1="93.1644" x2="162.278" y2="119.493" gradientUnits="userSpaceOnUse">
<stop stop-color="#FFAA00"/>
<stop offset="1" stop-color="#A1E513"/>
</linearGradient>
<linearGradient id="paint5_linear_687_25896" x1="175.444" y1="93.165" x2="175.444" y2="119.494" gradientUnits="userSpaceOnUse">
<stop stop-color="#FFAA00"/>
<stop offset="1" stop-color="#A1E513"/>
</linearGradient>
<linearGradient id="paint6_linear_687_25896" x1="86.8347" y1="57.2142" x2="113.165" y2="57.2142" gradientUnits="userSpaceOnUse">
<stop stop-color="#D92363"/>
<stop offset="1" stop-color="#FF530A"/>
</linearGradient>
<linearGradient id="paint7_linear_687_25896" x1="86.8347" y1="44.0492" x2="113.165" y2="44.0492" gradientUnits="userSpaceOnUse">
<stop stop-color="#D92363"/>
<stop offset="1" stop-color="#FF530A"/>
</linearGradient>
<linearGradient id="paint8_linear_687_25896" x1="86.8347" y1="30.8841" x2="113.165" y2="30.8841" gradientUnits="userSpaceOnUse">
<stop stop-color="#D92363"/>
<stop offset="1" stop-color="#FF530A"/>
</linearGradient>
<linearGradient id="paint9_linear_687_25896" x1="86.8347" y1="17.722" x2="113.165" y2="17.722" gradientUnits="userSpaceOnUse">
<stop stop-color="#D92363"/>
<stop offset="1" stop-color="#FF530A"/>
</linearGradient>
<linearGradient id="paint10_linear_687_25896" x1="86.8347" y1="4.55699" x2="113.165" y2="4.55699" gradientUnits="userSpaceOnUse">
<stop stop-color="#D92363"/>
<stop offset="1" stop-color="#FF530A"/>
</linearGradient>
<linearGradient id="paint11_linear_687_25896" x1="55.9617" y1="80.9073" x2="74.5796" y2="62.2901" gradientUnits="userSpaceOnUse">
<stop stop-color="#CC14A5"/>
<stop offset="1" stop-color="#D94177"/>
</linearGradient>
<linearGradient id="paint12_linear_687_25896" x1="46.653" y1="71.5993" x2="65.2699" y2="52.9822" gradientUnits="userSpaceOnUse">
<stop stop-color="#CC14A5"/>
<stop offset="1" stop-color="#D94177"/>
</linearGradient>
<linearGradient id="paint13_linear_687_25896" x1="37.344" y1="62.2927" x2="55.9609" y2="43.6746" gradientUnits="userSpaceOnUse">
<stop stop-color="#CC14A5"/>
<stop offset="1" stop-color="#D94177"/>
</linearGradient>
<linearGradient id="paint14_linear_687_25896" x1="28.035" y1="52.9842" x2="46.6529" y2="34.3661" gradientUnits="userSpaceOnUse">
<stop stop-color="#CC14A5"/>
<stop offset="1" stop-color="#D94177"/>
</linearGradient>
<linearGradient id="paint15_linear_687_25896" x1="50.8859" y1="119.495" x2="50.8859" y2="93.166" gradientUnits="userSpaceOnUse">
<stop stop-color="#6824B3"/>
<stop offset="1" stop-color="#D900AA"/>
</linearGradient>
<linearGradient id="paint16_linear_687_25896" x1="37.7209" y1="119.495" x2="37.7209" y2="93.1655" gradientUnits="userSpaceOnUse">
<stop stop-color="#6824B3"/>
<stop offset="1" stop-color="#D900AA"/>
</linearGradient>
<linearGradient id="paint17_linear_687_25896" x1="24.5555" y1="119.494" x2="24.5555" y2="93.1651" gradientUnits="userSpaceOnUse">
<stop stop-color="#6824B3"/>
<stop offset="1" stop-color="#D900AA"/>
</linearGradient>
<linearGradient id="paint18_linear_687_25896" x1="74.5782" y1="150.367" x2="55.9603" y2="131.749" gradientUnits="userSpaceOnUse">
<stop stop-color="#2477B3"/>
<stop offset="1" stop-color="#5625BB"/>
</linearGradient>
<linearGradient id="paint19_linear_687_25896" x1="65.271" y1="159.673" x2="46.6541" y2="141.056" gradientUnits="userSpaceOnUse">
<stop stop-color="#2477B3"/>
<stop offset="1" stop-color="#5625BB"/>
</linearGradient>
<linearGradient id="paint20_linear_687_25896" x1="125.42" y1="62.2934" x2="144.038" y2="80.9105" gradientUnits="userSpaceOnUse">
<stop stop-color="#FF530A"/>
<stop offset="1" stop-color="#FFD200"/>
</linearGradient>
<linearGradient id="paint21_linear_687_25896" x1="134.729" y1="52.9839" x2="153.346" y2="71.6009" gradientUnits="userSpaceOnUse">
<stop stop-color="#FF530A"/>
<stop offset="1" stop-color="#FFD200"/>
</linearGradient>
<linearGradient id="paint22_linear_687_25896" x1="144.038" y1="43.673" x2="162.655" y2="62.2912" gradientUnits="userSpaceOnUse">
<stop stop-color="#FF530A"/>
<stop offset="1" stop-color="#FFD200"/>
</linearGradient>
</defs>
</svg>
